<?xml version="1.0"?>
<svg xmlns="http://www.w3.org/2000/svg" id="Out_line" data-name="Out line" viewBox="0 0 512 512" width="512" height="512"><path d="M496,184h-8V95.21a79.51747,79.51747,0,0,0-48.24-73.15991,40.20637,40.20637,0,0,0-31.52,0A79.51747,79.51747,0,0,0,360,95.21v75.6001A87.54442,87.54442,0,0,1,344.36,127.99l-.00061-.00806A7.99364,7.99364,0,0,0,352,120V72a8.00008,8.00008,0,0,0-8-8H280a8.00008,8.00008,0,0,0-8,8v2.8501c-.43994-.51026-.9-1-1.38-1.48A31.984,31.984,0,0,0,220.01,80.51a32.22031,32.22031,0,0,0-5.39-7.13989,32.00263,32.00263,0,0,0-53.80994,15.43994A31.98816,31.98816,0,0,0,146.86,144,31.96526,31.96526,0,0,0,152,195.7V240h16V200H408V480H344v16H496a7.9979,7.9979,0,0,0,8-8V192A7.9979,7.9979,0,0,0,496,184ZM376,136h24a8,8,0,0,1,0,16H376Zm4.37-64H400a8,8,0,1,1,0,16H376.4A64.01244,64.01244,0,0,1,380.37,72ZM288,80h48v32H288ZM168,184a16,16,0,0,1,0-32,8,8,0,0,0,0-16,16,16,0,0,1,0-32,7.9979,7.9979,0,0,0,8-8,16.00013,16.00013,0,0,1,31.62-3.47A31.958,31.958,0,0,0,202.86,144a31.93735,31.93735,0,0,0-6.55994,40Zm56,0a16,16,0,0,1,0-32,8,8,0,0,0,0-16,16,16,0,0,1,0-32,7.9979,7.9979,0,0,0,8-8,16,16,0,1,1,32,0,7.9979,7.9979,0,0,0,8,8v16a7.99364,7.99364,0,0,0,7.64062,7.98193L279.64,127.99A87.73358,87.73358,0,0,1,256,180.62012V96H240v88Zm50.14,0a103.38584,103.38584,0,0,0,21.54993-56h32.62012A103.38584,103.38584,0,0,0,349.86,184ZM376,184V168h24a24,24,0,0,0,0-48H376V104h24a24,24,0,0,0,0-48H389.52a63.465,63.465,0,0,1,25.03-19.24,24.04215,24.04215,0,0,1,18.8999,0A63.51551,63.51551,0,0,1,472,95.21V184ZM488,480H424V200h64Z"/><path d="M176,432a24.04267,24.04267,0,0,0-18.334-23.32422,67.0819,67.0819,0,0,0-123.332,0,24.00336,24.00336,0,0,0,0,46.64844,67.0819,67.0819,0,0,0,123.332,0A24.04267,24.04267,0,0,0,176,432Zm-24,8a7.99922,7.99922,0,0,0-7.42773,5.0293l-1.14454,2.86132a51.08168,51.08168,0,0,1-94.85546,0l-1.14454-2.86132A7.99922,7.99922,0,0,0,40,440a8,8,0,0,1,0-16,7.99922,7.99922,0,0,0,7.42773-5.0293l1.14454-2.86132a51.08168,51.08168,0,0,1,94.85546,0l1.14454,2.86132A7.99922,7.99922,0,0,0,152,424a8,8,0,0,1,0,16Z"/><rect x="64" y="408" width="16" height="16"/><rect x="80" y="440" width="16" height="16"/><rect x="112" y="424" width="16" height="16"/><path d="M206.02,341.8501l17.13989-34.27-14.31982-7.16016-11.03,22.07007L192,316.67993V299.75a40.18506,40.18506,0,0,0-34.34009-39.59009L129.13,256.08008a7.99356,7.99356,0,0,0-9.04992,9.0498l4.07983,28.53A40.18506,40.18506,0,0,0,163.75,328h16.92993l9.21008,9.21a80.07936,80.07936,0,0,0-67.2301,19.16016L133.34009,368.29A63.911,63.911,0,0,1,176,352a62.44161,62.44161,0,0,1,6.87.37012l-9.07,18.12988a7.74033,7.74033,0,0,0-2.22-1.66016l-16-8-7.16016,14.32007,13.8501,6.92017A25.95522,25.95522,0,0,0,191.61,392.75l12.80993,6.40991,7.16016-14.32007-16-8a8.044,8.044,0,0,0-7.02-.06982l10.28-20.55a64.00695,64.00695,0,0,1-44.17017,120.13989L149.33008,491.45A80.01072,80.01072,0,0,0,206.02,341.8501ZM176,300.68994l-15.6-15.6001L149.09009,296.3999,164.68994,312H163.75a24.12661,24.12661,0,0,1-23.76-20.60986l-2.56006-17.96021L155.39,276A24.10891,24.10891,0,0,1,176,299.75Z"/><path d="M304,272h-8v-8h8a7.9979,7.9979,0,0,0,8-8V224a7.9979,7.9979,0,0,0-8-8H224a7.9979,7.9979,0,0,0-8,8v32a7.9979,7.9979,0,0,0,8,8h8v8h-8a32.0512,32.0512,0,0,0-23.85,10.66992l11.92,10.66016A16.0305,16.0305,0,0,1,224,288h16a7.9979,7.9979,0,0,0,8-8V264h32v8H264v16h40a16.02116,16.02116,0,0,1,16,16v16H232v16h88v96H272v16h48v16a16.02116,16.02116,0,0,1-16,16H240v16h64a32.036,32.036,0,0,0,32-32V304A32.036,32.036,0,0,0,304,272Zm-72-24V232h64v16Z"/></svg>
